<?xml version="1.0" standalone="no"?>
<!DOCTYPE svg PUBLIC "-//W3C//DTD SVG 20010904//EN"
 "http://www.w3.org/TR/2001/REC-SVG-20010904/DTD/svg10.dtd">
<svg version="1.0" xmlns="http://www.w3.org/2000/svg"
 width="433.000000pt" height="577.000000pt" viewBox="0 0 433.000000 577.000000"
 preserveAspectRatio="xMidYMid meet">

<g transform="translate(0.000000,577.000000) scale(0.100000,-0.100000)"
fill="#000000" stroke="none">
<path d="M1929 5007 c-68 -29 -142 -80 -159 -112 -7 -13 -30 -38 -52 -55 -22
-18 -48 -53 -60 -78 -11 -26 -25 -55 -30 -65 -5 -10 -11 -49 -14 -87 -5 -64
-3 -73 20 -103 14 -19 26 -40 26 -48 0 -8 7 -27 15 -42 8 -15 19 -44 24 -63 9
-31 8 -34 -13 -34 -34 0 -46 -19 -46 -71 0 -56 51 -149 81 -149 11 0 24 -15
36 -42 10 -23 36 -78 59 -123 50 -98 60 -146 40 -177 -8 -13 -22 -50 -32 -83
-10 -33 -20 -63 -24 -67 -9 -11 -101 -27 -94 -17 9 15 -17 10 -50 -10 -40 -25
-89 -37 -233 -61 -89 -14 -134 -28 -188 -54 -74 -38 -125 -91 -125 -131 0 -12
-9 -30 -20 -40 -15 -13 -20 -31 -20 -66 0 -27 -11 -92 -25 -144 -23 -91 -24
-132 -3 -119 7 4 7 0 0 -12 -5 -11 -8 -32 -5 -49 3 -21 -2 -37 -15 -51 -11
-12 -32 -44 -46 -71 -15 -32 -38 -58 -60 -71 -39 -23 -69 -74 -87 -148 -7 -27
-31 -96 -55 -154 -48 -119 -48 -149 -1 -230 23 -38 26 -53 20 -97 -5 -44 -2
-58 21 -97 33 -57 70 -86 111 -86 39 0 216 71 225 90 4 8 29 60 56 115 26 55
58 112 70 128 13 15 21 33 18 40 -2 7 11 35 31 62 19 28 35 60 35 72 0 25 34
53 65 53 12 0 27 6 34 12 7 7 0 -7 -17 -32 -16 -25 -48 -76 -70 -115 l-40 -70
10 -135 c22 -298 -10 -652 -83 -925 -82 -303 -99 -537 -47 -638 21 -42 101
-127 119 -127 5 0 9 -89 9 -215 l0 -215 420 0 420 0 0 25 c0 14 5 25 10 25 6
0 10 -11 10 -25 l0 -25 414 0 414 0 6 98 c8 128 7 124 27 119 20 -5 28 17 33
103 6 80 21 78 19 -3 l-2 -72 14 69 c8 38 21 76 29 85 14 13 18 13 36 -4 35
-32 24 -191 -17 -235 -8 -9 -32 -15 -61 -15 -40 0 -47 -3 -47 -20 0 -14 13
-25 46 -39 43 -17 52 -18 104 -5 32 8 62 21 66 29 25 49 59 131 59 144 0 9 -6
16 -14 16 -12 0 -43 -59 -60 -117 -4 -11 -13 -27 -21 -33 -28 -23 -17 28 22
106 34 69 35 75 20 92 -10 10 -15 21 -12 24 3 3 -4 35 -15 71 -24 76 -19 126
26 267 18 60 21 84 15 120 -5 25 -8 59 -6 75 1 17 3 49 3 73 2 52 23 64 57 32
17 -16 29 -20 42 -15 10 5 21 7 26 7 13 -3 7 19 -7 24 -34 13 -52 127 -26 159
11 13 9 15 -13 15 -14 0 -29 -4 -32 -10 -10 -17 -34 -11 -45 11 -13 23 -16 57
-25 239 -3 69 -9 151 -13 182 -8 52 -7 220 1 336 4 44 17 62 49 62 36 0 211
70 222 88 5 9 -90 342 -127 447 -14 39 -42 123 -62 188 -20 64 -41 120 -46
123 -5 3 -9 20 -9 37 0 40 -28 166 -68 317 -30 110 -33 117 -79 156 -80 71
-241 147 -401 190 -30 8 -62 19 -72 24 -10 5 -41 9 -69 9 -28 -1 -57 3 -64 9
-11 9 -49 92 -88 190 -15 39 -32 26 -26 -20 7 -55 -11 -98 -65 -148 -35 -33
-49 -40 -78 -38 -20 1 -40 -1 -46 -4 -5 -4 -16 -3 -24 3 -8 5 -25 9 -36 9 -36
0 -46 22 -28 59 9 17 17 37 18 44 4 24 22 45 58 70 20 13 34 27 31 31 -4 3 -2
6 4 6 6 0 13 8 16 19 6 25 -32 68 -56 63 -87 -18 -84 66 3 101 8 4 -1 4 -21 1
-30 -5 -38 -2 -53 20 -9 14 -13 26 -8 26 5 0 9 7 9 15 0 11 -13 15 -46 17 -25
0 -50 2 -56 3 -5 2 -18 3 -27 4 -10 0 -18 8 -18 17 0 8 5 12 10 9 6 -3 10 -1
10 4 0 6 3 10 8 9 4 -1 32 4 62 11 75 18 114 12 118 -16 3 -18 -2 -23 -19 -23
-18 0 -19 -2 -9 -15 8 -9 21 -13 31 -10 13 5 21 0 27 -14 6 -18 10 -19 32 -8
28 14 44 74 37 143 -3 32 -13 49 -48 82 -24 23 -49 42 -55 42 -7 0 -11 -16
-10 -37 1 -35 -1 -38 -24 -35 -13 1 -37 -2 -53 -7 -23 -9 -29 -7 -34 7 -4 9
-10 20 -15 23 -4 3 -2 25 5 50 8 24 12 50 10 56 -3 7 0 20 5 30 7 12 5 24 -6
42 -12 18 -13 26 -4 29 22 7 13 20 -19 27 -19 4 -37 18 -47 36 -10 17 -27 29
-42 31 -21 2 -17 6 23 19 26 9 47 13 47 10 0 -13 43 -10 64 5 11 7 28 14 38
14 10 0 18 7 18 15 0 8 5 15 12 15 6 0 4 8 -6 19 -11 12 -13 21 -7 25 5 4 8
15 6 26 -3 15 3 21 23 26 15 3 35 9 44 15 36 19 66 9 117 -39 30 -28 51 -57
51 -69 0 -11 7 -26 16 -33 28 -24 37 -54 40 -139 3 -79 11 -111 21 -84 2 7 10
10 16 7 7 -2 13 8 14 27 1 17 13 54 26 82 31 66 42 172 24 226 -32 91 -102
138 -192 127 l-53 -6 -18 57 c-18 57 -38 81 -107 127 -33 23 -48 26 -120 26
-62 0 -95 -6 -138 -23z m-234 -727 c3 -5 1 -10 -4 -10 -6 0 -11 5 -11 10 0 6
2 10 4 10 3 0 8 -4 11 -10z m145 -39 c0 -5 8 -7 19 -4 27 7 36 -15 16 -37 -11
-12 -28 -18 -46 -17 -31 2 -36 16 -17 47 13 21 28 27 28 11z m381 -48 c8 -56
6 -73 -11 -73 -26 0 -50 10 -50 22 0 5 4 7 9 4 12 -8 41 3 41 15 0 5 -13 9
-29 9 -39 0 -49 17 -14 23 49 7 53 7 54 0z m774 -988 c-14 -25 -28 -45 -30
-45 -12 0 -2 30 22 68 36 55 43 35 8 -23z m175 0 c-8 -9 -8 -14 0 -17 7 -2 5
-14 -5 -35 -20 -40 -35 -51 -35 -24 0 11 5 23 10 26 6 3 7 17 4 30 -7 30 2 46
22 38 11 -4 12 -9 4 -18z m-83 -77 c-3 -7 -5 -2 -5 12 0 14 2 19 5 13 2 -7 2
-19 0 -25z m-1387 -23 c0 -11 8 -15 28 -13 21 2 28 -2 30 -18 2 -12 12 -24 24
-27 16 -5 19 -11 14 -31 -5 -20 -1 -29 18 -42 34 -21 40 -47 22 -83 -9 -17
-16 -43 -16 -59 0 -16 -7 -35 -15 -42 -9 -7 -13 -21 -9 -35 6 -24 -36 -83 -58
-82 -76 3 -118 -21 -118 -68 0 -27 -68 -105 -91 -105 -10 0 -10 3 -3 8 6 4 15
26 19 50 4 23 13 49 20 56 25 25 28 60 6 88 -12 14 -21 33 -21 41 0 9 -4 18
-10 22 -17 10 -30 76 -19 97 8 15 5 20 -15 27 -35 14 -37 30 -8 84 23 42 24
51 13 69 -12 19 -11 23 5 35 10 7 30 13 45 13 15 0 31 5 34 11 4 6 19 7 36 4
18 -4 29 -3 29 4 0 6 9 11 20 11 11 0 20 -7 20 -15z m-640 -109 c0 -2 -7 -7
-16 -10 -8 -3 -12 -2 -9 4 6 10 25 14 25 6z m1899 -144 c0 -35 -3 -42 -9 -27
-12 28 -12 88 0 80 6 -3 10 -27 9 -53z m-141 -83 c-15 -9 -26 12 -27 51 -1 24
0 23 20 -9 16 -27 18 -36 7 -42z m42 -44 c33 0 46 -4 48 -16 2 -13 -4 -15 -40
-9 -53 8 -68 16 -67 38 0 14 2 15 7 2 5 -10 22 -15 52 -15z m-30 -45 c0 -5 -7
-7 -15 -4 -8 4 -15 8 -15 10 0 2 7 4 15 4 8 0 15 -4 15 -10z m5 -50 c11 -35
-21 -130 -44 -130 -5 0 -7 73 -3 128 3 28 38 30 47 2z m22 -52 c-3 -8 -6 -5
-6 6 -1 11 2 17 5 13 3 -3 4 -12 1 -19z m39 -95 c-10 -10 -19 5 -10 18 6 11 8
11 12 0 2 -7 1 -15 -2 -18z m-65 -96 c-8 -8 -11 -7 -11 4 0 20 13 34 18 19 3
-7 -1 -17 -7 -23z m-26 -6 c3 -6 -4 -15 -15 -21 -20 -11 -21 -10 -10 9 12 23
16 25 25 12z m19 -52 c-31 -12 -40 -9 -20 6 10 8 24 11 29 8 6 -4 2 -10 -9
-14z m-58 -26 c-10 -10 -19 5 -10 18 6 11 8 11 12 0 2 -7 1 -15 -2 -18z m98
-77 c4 -21 8 -42 11 -46 3 -5 0 -10 -6 -12 -6 -2 6 -12 27 -21 l39 -18 0 -292
c0 -161 4 -310 9 -332 6 -28 5 -37 -2 -30 -6 6 -20 66 -32 135 -36 208 -39
221 -54 269 -17 55 -30 205 -17 196 5 -3 12 -19 16 -35 8 -38 25 -49 19 -13
-11 69 -17 90 -31 112 -18 28 -27 111 -13 111 6 0 10 -7 10 -15 0 -8 5 -15 10
-15 7 0 7 6 1 19 -6 10 -7 21 -4 25 9 9 10 6 17 -38z m-80 -98 c6 -4 8 -10 4
-13 -11 -11 -38 27 -37 53 l1 27 10 -30 c6 -16 16 -33 22 -37z m23 -30 c-3 -8
-6 -5 -6 6 -1 11 2 17 5 13 3 -3 4 -12 1 -19z m168 -79 c5 -33 12 -48 24 -52
14 -3 20 -24 30 -93 32 -232 45 -313 83 -489 29 -138 41 -217 42 -288 1 -65 6
-101 14 -106 29 -17 41 -126 23 -204 -5 -21 -27 -66 -49 -100 -44 -66 -77
-171 -88 -272 -3 -33 -7 -61 -9 -63 -18 -19 -15 570 4 638 16 60 -5 167 -53
261 -24 47 -37 88 -41 130 -3 34 -8 65 -11 70 -3 5 -1 9 5 9 6 0 13 -16 17
-35 3 -20 8 -34 10 -32 5 5 -15 593 -22 657 -7 61 12 33 21 -31z m-509 -200
c10 -24 26 -55 36 -68 10 -13 18 -27 18 -32 0 -16 -26 2 -42 29 -14 24 -58
138 -58 151 0 13 31 -40 46 -80z m64 -129 c0 -5 -2 -10 -4 -10 -3 0 -8 5 -11
10 -3 6 -1 10 4 10 6 0 11 -4 11 -10z m28 -63 c2 -9 -2 -17 -9 -17 -7 0 -9 3
-6 7 4 3 1 13 -6 21 -10 13 -9 14 3 10 8 -2 16 -12 18 -21z m82 -277 c0 -5 -2
-10 -4 -10 -3 0 -8 5 -11 10 -3 6 -1 10 4 10 6 0 11 -4 11 -10z m48 -117 c12
-13 20 -23 17 -23 -4 0 6 -10 21 -22 15 -13 50 -44 79 -70 28 -27 57 -48 62
-48 6 0 16 -7 23 -15 11 -13 10 -14 -6 -9 -10 4 -25 12 -33 18 -15 12 -41 17
-41 8 0 -3 7 -14 17 -24 9 -10 11 -18 6 -18 -13 0 -103 104 -103 119 0 6 -8
19 -17 29 -39 38 -93 110 -93 122 0 7 10 0 22 -16 12 -16 33 -39 46 -51z m15
63 c4 -10 1 -13 -9 -9 -15 6 -19 23 -5 23 5 0 11 -7 14 -14z m186 -328 c11
-10 13 -10 7 0 -4 6 -2 12 3 12 6 0 11 -8 11 -19 0 -10 10 -26 23 -34 19 -14
20 -16 4 -16 -10 -1 -28 10 -41 24 -13 13 -26 22 -29 18 -4 -3 -7 1 -7 10 0
20 11 22 29 5z"/>
<path d="M1600 3000 c0 -6 7 -10 15 -10 8 0 15 2 15 4 0 2 -7 6 -15 10 -8 3
-15 1 -15 -4z"/>
<path d="M1638 2883 c6 -2 18 -2 25 0 6 3 1 5 -13 5 -14 0 -19 -2 -12 -5z"/>
<path d="M1698 2883 c7 -3 16 -2 19 1 4 3 -2 6 -13 5 -11 0 -14 -3 -6 -6z"/>
<path d="M1610 2790 c8 -5 24 -10 35 -10 17 0 17 2 5 10 -8 5 -24 10 -35 10
-17 0 -17 -2 -5 -10z"/>
<path d="M2156 4537 c-19 -14 -19 -15 2 -26 13 -7 27 -9 32 -6 19 12 10 -8
-20 -42 -22 -25 -30 -44 -30 -73 0 -35 3 -39 30 -45 17 -4 30 -11 30 -17 0 -6
3 -8 6 -5 4 3 15 2 26 -4 20 -11 58 -3 58 12 0 5 -9 18 -19 28 -19 19 -19 19
2 25 12 3 33 6 45 6 36 0 21 23 -24 36 -25 7 -33 13 -24 17 9 3 3 6 -13 6 -32
1 -46 26 -26 46 16 16 84 22 114 10 18 -7 18 -6 -3 16 -18 20 -34 24 -95 27
-52 3 -77 -1 -91 -11z"/>
<path d="M2562 4322 c8 -30 5 -48 -10 -90 -11 -29 -18 -52 -16 -52 7 0 54 99
54 114 0 20 -21 66 -31 66 -4 0 -3 -17 3 -38z"/>
<path d="M2477 4277 c-3 -8 -1 -20 4 -28 4 -8 6 -24 3 -36 -6 -21 -4 -21 20
-10 31 14 35 53 9 73 -23 17 -30 17 -36 1z"/>
<path d="M3353 281 c1 -15 4 -17 14 -9 17 14 16 28 -1 28 -8 0 -14 -9 -13 -19z"/>
</g>
</svg>
